# xmcd
#
# Track frame offsets: 
#        150
#        20769
#        43285
#        57647
#        77010
#        87051
#        100946
#        116376
#        126602
#        139125
#        152310
#        172165
#        183755
#        199735
#        211500
#        225078
#
# Disc length: 3183 seconds
#
# Revision: 0
# Processed by: cddbd v1.5.2PL0 Copyright (c) Steve Scherf et al.
# Submitted via: ExactAudioCopy v0.99pb4
#
DISCID=d00c6d10
DTITLE=Lou Rawls - Amen
DYEAR=1900
DGENRE=Gospel
TTITLE0=Don't Feel No Ways Tired - Please Be Patient With Me
TTITLE1=Oh! Happy Day
TTITLE2=How Great Thou Art
TTITLE3=Peace In The Valley
TTITLE4=Blessed Assurance
TTITLE5=Jesus Be A Fence All Around Me
TTITLE6=Nearer My God To Thee - I Touched The Hem Of His Garment - Whe
TTITLE6=re You There
TTITLE7=He's Got The Whole World In His Hands
TTITLE8=Amazing Grace
TTITLE9=That's Heaven To Me
TTITLE10=Just A Closer Walk With Thee
TTITLE11=Amen
TTITLE12=His Eyes Are On The Sparrow
TTITLE13=Thank God For Standing By Me
TTITLE14=People Get Ready
TTITLE15=You've Got To Move
EXTD=
EXTT0=
EXTT1=
EXTT2=
EXTT3=
EXTT4=
EXTT5=
EXTT6=
EXTT7=
EXTT8=
EXTT9=
EXTT10=
EXTT11=
EXTT12=
EXTT13=
EXTT14=
EXTT15=
PLAYORDER=
